PathFileType	3	(X/Y/Z)	D:\minhoCalibration\240510\subject4_KPNP\preferred\preferred06.trc
DataRate	CameraRate	NumFrames	NumMarkers	Units	OrigDataRate	OrigDataStartFrame	OrigNumFrames
200.0	200.0	15	10	mm	200.0	213	69	
Frame#	Time	Left_Ankle_Outer1			Left_Ankle_Inner1			Left_Knee_Outer1			Left_Knee_Inner1			Left_Wrist1			Right_Wrist1			Right_Knee_Inner1			Right_Knee_Outer1			Right_Ankle_Inner1			Right_Ankle_Outer1			
		X1	Y1	Z1	X2	Y2	Z2	X3	Y3	Z3	X4	Y4	Z4	X5	Y5	Z5	X6	Y6	Z6	X7	Y7	Z7	X8	Y8	Z8	X9	Y9	Z9	X10	Y10	Z10	
213	1.055	-727.67535	783.24939	1063.6674	-667.27008	700.31439	1054.7849	-398.60837	1010.3503	781.70068	-329.05002	925.06781	808.39526	-413.76358	1194.4613	1183.2465	-320.05927	945.84949	1445.6655	-251.29169	566.11115	1159.7303	-233.26892	573.8501	1268.8007	-453.89334	136.14827	1235.6978	-424.61356	139.45808	1284.7179
214	1.06	-738.63861	806.48608	1033.1298	-681.49188	721.4129	1028.7361	-378.6427	1020.8232	780.52094	-315.27975	930.96991	808.15765	-407.68967	1197.2029	1182.0345	-329.1785	944.26215	1446.0212	-248.53778	568.0293	1159.5988	-234.151	575.61212	1268.8595	-453.43094	138.37279	1231.5439	-425.04095	141.62485	1281.1318
215	1.065	-748.39984	830.37939	1000.9606	-694.20709	743.0318	1001.2444	-358.9101	1029.3057	780.53503	-302.51416	935.71582	808.64825	-401.83234	1199.3275	1181.1875	-338.51706	942.57281	1446.0007	-245.98779	569.78162	1159.2041	-235.20483	577.56702	1269.0917	-452.87451	140.29262	1227.7938	-425.36063	143.64076	1277.6273
216	1.07	-756.15747	854.69934	966.66565	-705.93243	764.68201	970.63409	-340.04147	1036.4221	781.52356	-290.69675	939.59479	809.74243	-396.27264	1201.2034	1180.5605	-347.73392	940.89087	1445.6693	-243.79417	571.67334	1158.5839	-236.67738	579.18134	1268.8594	-452.26068	142.15768	1223.8123	-425.71051	145.32243	1274.1667
217	1.075	-761.60297	878.90625	930.46265	-716.15778	787.1145	937.3938	-321.93961	1042.1422	783.26813	-280.23721	942.62006	811.37671	-391.1944	1202.4558	1180.1885	-356.8067	939.20447	1444.4377	-242.14642	573.29688	1157.7845	-238.78539	580.82935	1268.4846	-451.54745	143.39877	1219.9741	-426.15231	146.79535	1270.8005
218	1.08	-764.46423	903.14148	892.823	-723.94324	809.28412	901.90375	-304.83743	1046.6732	785.79407	-271.24619	944.96906	813.44196	-386.53503	1203.2709	1179.9691	-365.69376	937.50299	1442.3962	-241.42784	574.94849	1156.8179	-241.14807	582.31305	1268	-451.54678	144.6474	1216.1829	-426.66202	147.95061	1267.533
219	1.085	-764.68048	927.24286	853.9668	-729.2735	831.85974	865.9469	-289.34387	1050.0715	789.09766	-263.55405	946.87482	815.44019	-382.19293	1204.6355	1179.9197	-374.11948	935.82025	1439.6221	-240.85025	576.45636	1155.2297	-244.19223	583.50812	1266.9917	-451.53214	145.46109	1212.655	-427.37863	148.95258	1264.551
220	1.09	-762.28546	950.65918	814.29401	-731.67505	852.45062	823.72852	-275.41418	1052.5002	792.74286	-257.29205	948.28278	817.31604	-378.31497	1205.6536	1179.7255	-382.05884	934.33215	1436.3826	-241.25116	577.65125	1153.369	-247.34477	584.63251	1266.0398	-451.84573	146.09776	1209.6891	-428.4502	149.76146	1261.7322
221	1.095	-756.71625	973.39777	773.58551	-731.31561	873.8075	784.6936	-263.40991	1054.0957	796.51788	-252.60869	949.47644	818.94061	-375.38742	1206.6155	1180.1066	-389.4057	932.96552	1432.8618	-242.19839	578.64221	1151.0443	-250.30296	584.96661	1264.0787	-452.54227	146.65677	1207.3087	-429.74683	150.42772	1259.1891
222	1.1	-748.15588	995.40869	731.8255	-727.90118	894.64703	741.4527	-253.55467	1054.7634	800.28223	-249.18771	950.48468	819.88806	-373.26477	1207.6095	1180.4329	-395.8287	931.6261	1428.9553	-243.67883	579.45386	1148.4727	-252.76985	585.28003	1262.1549	-453.79276	146.6301	1204.6567	-431.15308	151.00067	1256.848
223	1.105	-736.76202	1016.6461	689.51306	-720.99255	915.03436	697.46033	-245.813	1054.8821	803.69897	-247.06209	951.5611	820.18127	-371.21503	1208.9072	1180.7916	-401.42001	930.40521	1424.8898	-245.58043	580.12677	1145.5255	-254.63712	585.15924	1259.3971	-454.97214	147.03854	1202.6503	-432.65982	151.29608	1254.7524
224	1.11	-722.23163	1037.0372	646.54773	-710.18402	934.89105	652.70605	-239.62318	1055.2081	806.75507	-246.27184	952.80798	819.74884	-369.95245	1210.4357	1181.2349	-406.30902	929.38568	1420.787	-247.98645	580.30493	1142.3286	-255.8521	584.98798	1256.2086	-456.52933	146.80316	1200.7013	-434.34653	151.4646	1252.9115
225	1.115	-704.41412	1056.8143	603.65582	-695.63361	954.26996	607.47345	-235.99614	1054.7002	809.50763	-246.57797	954.19214	818.49664	-369.36649	1211.5846	1181.9896	-410.08078	928.07837	1417.0289	-250.2948	580.22711	1138.623	-256.42288	584.77588	1252.6398	-457.91348	146.67012	1198.7686	-435.97678	151.468	1251.2437
226	1.12	-682.38043	1075.703	560.50476	-676.72644	973.08844	561.99829	-234.33606	1054.1594	811.91266	-247.89645	955.80902	816.48126	-368.13574	1213.6104	1182.2072	-412.9985	927.10144	1413.3218	-253.04532	579.98358	1135.0822	-256.5022	584.68866	1249.0229	-459.65552	146.24829	1197.3916	-437.5271	151.27405	1249.7534
227	1.125	-656.78625	1093.5988	518.1424	-653.8031	990.27747	517.18542	-234.71037	1053.4838	813.68628	-250.12231	957.84033	813.7547	-367.5773	1214.9305	1182.7371	-415.00919	925.63013	1410.1835	-256.07956	579.37817	1131.5046	-256.58948	584.56708	1244.9435	-461.1106	145.41513	1196.1946	-439.05533	150.88127	1248.3695
